<svg width="16" height="16" viewBox="0 0 16 16" fill="none" xmlns="http://www.w3.org/2000/svg">
<path d="M1.3335 6.66732H14.6668V5.46732C14.6668 4.72058 14.6668 4.34721 14.5215 4.062C14.3937 3.81112 14.1897 3.60714 13.9388 3.47931C13.6536 3.33398 13.2802 3.33398 12.5335 3.33398H3.46683C2.72009 3.33398 2.34672 3.33398 2.06151 3.47931C1.81063 3.60714 1.60665 3.81111 1.47882 4.062C1.3335 4.34721 1.3335 4.72058 1.3335 5.46732V10.534C1.3335 11.2807 1.3335 11.6541 1.47882 11.9393C1.60665 12.1902 1.81063 12.3942 2.06151 12.522C2.34672 12.6673 2.72009 12.6673 3.46683 12.6673H7.3335M9.66683 14.0007L11.0168 13.7307C11.1345 13.7071 11.1934 13.6953 11.2483 13.6738C11.297 13.6547 11.3433 13.6299 11.3862 13.6C11.4345 13.5663 11.477 13.5238 11.5619 13.4389L14.3335 10.6673C14.7017 10.2991 14.7017 9.70217 14.3335 9.33398C13.9653 8.96579 13.3684 8.9658 13.0002 9.33399L10.2285 12.1056C10.1436 12.1905 10.1012 12.2329 10.0675 12.2813C10.0375 12.3242 10.0128 12.3705 9.99367 12.4192C9.97214 12.4741 9.96037 12.533 9.93683 12.6507L9.66683 14.0007Z" stroke="white" stroke-linecap="round" stroke-linejoin="round"/>
</svg>
