<svg width="17" height="16" viewBox="0 0 17 16" fill="none" xmlns="http://www.w3.org/2000/svg">
<path d="M15.1668 6.66732H1.8335M7.8335 9.33398H4.50016M1.8335 5.46732L1.8335 10.534C1.8335 11.2807 1.8335 11.6541 1.97882 11.9393C2.10665 12.1902 2.31063 12.3942 2.56151 12.522C2.84672 12.6673 3.22009 12.6673 3.96683 12.6673L13.0335 12.6673C13.7802 12.6673 14.1536 12.6673 14.4388 12.522C14.6897 12.3942 14.8937 12.1902 15.0215 11.9393C15.1668 11.6541 15.1668 11.2807 15.1668 10.534V5.46732C15.1668 4.72058 15.1668 4.34721 15.0215 4.062C14.8937 3.81112 14.6897 3.60714 14.4388 3.47931C14.1536 3.33399 13.7802 3.33399 13.0335 3.33399L3.96683 3.33398C3.22009 3.33398 2.84672 3.33398 2.56151 3.47931C2.31063 3.60714 2.10665 3.81111 1.97882 4.062C1.8335 4.34721 1.8335 4.72058 1.8335 5.46732Z" stroke="white" stroke-linecap="round" stroke-linejoin="round"/>
</svg>
