<svg width="16" height="16" viewBox="0 0 16 16" fill="none" xmlns="http://www.w3.org/2000/svg">
<path d="M14.6668 6.66732H1.3335M14.6668 7.33398V5.46732C14.6668 4.72058 14.6668 4.34721 14.5215 4.062C14.3937 3.81112 14.1897 3.60714 13.9388 3.47931C13.6536 3.33398 13.2802 3.33398 12.5335 3.33398H3.46683C2.72009 3.33398 2.34672 3.33398 2.06151 3.47931C1.81063 3.60714 1.60665 3.81111 1.47882 4.062C1.3335 4.34721 1.3335 4.72058 1.3335 5.46732V10.534C1.3335 11.2807 1.3335 11.6541 1.47882 11.9393C1.60665 12.1902 1.81063 12.3942 2.06151 12.522C2.34672 12.6673 2.72009 12.6673 3.46683 12.6673H7.66683M12.0002 14.0007C12.0002 14.0007 14.0002 13.0474 14.0002 11.6175V9.94924L12.5418 9.42812C12.1914 9.30261 11.8082 9.30261 11.4578 9.42812L10.0002 9.94924V11.6175C10.0002 13.0474 12.0002 14.0007 12.0002 14.0007Z" stroke="white" stroke-linecap="round" stroke-linejoin="round"/>
</svg>
