<svg width="17" height="16" viewBox="0 0 17 16" fill="none" xmlns="http://www.w3.org/2000/svg">
<path d="M13.1668 14.0007V10.0007M11.1668 12.0007H15.1668M15.1668 6.66732H1.8335M15.1668 8.00065V5.46732C15.1668 4.72058 15.1668 4.34721 15.0215 4.062C14.8937 3.81112 14.6897 3.60714 14.4388 3.47931C14.1536 3.33398 13.7802 3.33398 13.0335 3.33398H3.96683C3.22009 3.33398 2.84672 3.33398 2.56151 3.47931C2.31063 3.60714 2.10665 3.81111 1.97882 4.062C1.8335 4.34721 1.8335 4.72058 1.8335 5.46732V10.534C1.8335 11.2807 1.8335 11.6541 1.97882 11.9393C2.10665 12.1902 2.31063 12.3942 2.56151 12.522C2.84672 12.6673 3.22009 12.6673 3.96683 12.6673H8.50016" stroke="white" stroke-linecap="round" stroke-linejoin="round"/>
</svg>
