<svg width="16" height="16" viewBox="0 0 16 16" fill="none" xmlns="http://www.w3.org/2000/svg">
<path d="M8 1.33398L4 1.33398C2.34533 1.33398 2 1.67932 2 3.33398L2 14.6673L10 14.6673L10 3.33398C10 1.67932 9.65467 1.33398 8 1.33398Z" stroke="#D0D5DD" stroke-linejoin="round"/>
<path d="M12 5.33398L10 5.33398L10 14.6673L14 14.6673L14 7.33398C14 5.67932 13.6547 5.33398 12 5.33398Z" stroke="#D0D5DD" stroke-linejoin="round"/>
<path d="M5.3335 4L6.66683 4M5.3335 6L6.66683 6M5.3335 8L6.66683 8" stroke="#D0D5DD" stroke-linecap="round" stroke-linejoin="round"/>
<path d="M7.66683 14.668L7.66683 12.0013C7.66683 11.3728 7.66683 11.0585 7.47157 10.8632C7.27631 10.668 6.96204 10.668 6.3335 10.668H5.66683C5.03829 10.668 4.72402 10.668 4.52876 10.8632C4.3335 11.0585 4.3335 11.3728 4.3335 12.0013L4.3335 14.668" stroke="#D0D5DD" stroke-linejoin="round"/>
</svg>
