<svg width="16" height="16" viewBox="0 0 16 16" fill="none" xmlns="http://www.w3.org/2000/svg">
<path d="M7.3335 13.3327H7.00016C4.49444 13.3327 3.24159 13.3327 2.40513 12.6721C2.27135 12.5664 2.14762 12.45 2.03536 12.3241C1.3335 11.5368 1.3335 10.3577 1.3335 7.99935C1.3335 5.64103 1.3335 4.46186 2.03536 3.67462C2.14762 3.5487 2.27135 3.43225 2.40513 3.3266C3.24159 2.66602 4.49444 2.66602 7.00016 2.66602H9.00016C11.5059 2.66602 12.7587 2.66602 13.5952 3.3266C13.729 3.43225 13.8527 3.5487 13.965 3.67462C14.5973 4.38391 14.6599 5.41134 14.6661 7.33268" stroke="#D0D5DD" stroke-linecap="round" stroke-linejoin="round"/>
<path d="M1.3335 6H14.6668" stroke="#D0D5DD" stroke-linejoin="round"/>
<path d="M9.3335 12.0007C9.3335 12.0007 10.0002 12.0007 10.6668 13.334C10.6668 13.334 12.7845 10.0007 14.6668 9.33398" stroke="#D0D5DD" stroke-linecap="round" stroke-linejoin="round"/>
</svg>
