<svg width="16" height="16" viewBox="0 0 16 16" fill="none" xmlns="http://www.w3.org/2000/svg">
<path d="M7.00016 13.3333H9.00016C11.5059 13.3333 12.7587 13.3333 13.5952 12.6728C13.729 12.5671 13.8527 12.4506 13.965 12.3247C14.6668 11.5375 14.6668 10.3583 14.6668 8C14.6668 7.21125 14.6668 6.5544 14.6406 6H1.35975C1.3335 6.5544 1.3335 7.21125 1.3335 8C1.3335 10.3583 1.3335 11.5375 2.03536 12.3247C2.14762 12.4506 2.27135 12.5671 2.40513 12.6728C3.24159 13.3333 4.49444 13.3333 7.00016 13.3333Z" stroke="#808080" stroke-linecap="round" stroke-linejoin="round"/>
<path d="M1.3335 7.99935C1.3335 5.64103 1.3335 4.46186 2.03536 3.67462C2.14762 3.5487 2.27135 3.43225 2.40513 3.3266C3.24159 2.66602 4.49444 2.66602 7.00016 2.66602H9.00016C11.5059 2.66602 12.7587 2.66602 13.5952 3.3266C13.729 3.43225 13.8527 3.5487 13.965 3.67462C14.6668 4.46186 14.6668 5.64103 14.6668 7.99935C14.6668 10.3577 14.6668 11.5368 13.965 12.3241C13.8527 12.45 13.729 12.5664 13.5952 12.6721C12.7587 13.3327 11.5059 13.3327 9.00016 13.3327H7.00016C4.49444 13.3327 3.24159 13.3327 2.40513 12.6721C2.27135 12.5664 2.14762 12.45 2.03536 12.3241C1.3335 11.5368 1.3335 10.3577 1.3335 7.99935Z" stroke="#014DAF" stroke-linecap="round" stroke-linejoin="round"/>
<path d="M6.6665 10.666H7.6665" stroke="#014DAF" stroke-miterlimit="10" stroke-linecap="round" stroke-linejoin="round"/>
<path d="M9.6665 10.666L11.9998 10.666" stroke="#014DAF" stroke-miterlimit="10" stroke-linecap="round" stroke-linejoin="round"/>
<path d="M1.3335 6H14.6668" stroke="#014DAF" stroke-linejoin="round"/>
</svg>
