<svg width="16" height="16" viewBox="0 0 16 16" fill="none" xmlns="http://www.w3.org/2000/svg">
<path d="M1.6665 7.99935C1.6665 5.01379 1.6665 3.52101 2.594 2.59351C3.52149 1.66602 5.01428 1.66602 7.99984 1.66602C10.9854 1.66602 12.4782 1.66602 13.4057 2.59351C14.3332 3.52101 14.3332 5.01379 14.3332 7.99935C14.3332 10.9849 14.3332 12.4777 13.4057 13.4052C12.4782 14.3327 10.9854 14.3327 7.99984 14.3327C5.01428 14.3327 3.52149 14.3327 2.594 13.4052C1.6665 12.4777 1.6665 10.9849 1.6665 7.99935Z" stroke="#014DAF" stroke-linejoin="round"/>
<path d="M5.6665 6.66602C5.11422 6.66602 4.6665 6.2183 4.6665 5.66602C4.6665 5.11373 5.11422 4.66602 5.6665 4.66602C6.21879 4.66602 6.6665 5.11373 6.6665 5.66602C6.6665 6.2183 6.21879 6.66602 5.6665 6.66602Z" stroke="#014DAF"/>
<path d="M10.3335 11.334C10.8858 11.334 11.3335 10.8863 11.3335 10.334C11.3335 9.7817 10.8858 9.33398 10.3335 9.33398C9.78121 9.33398 9.3335 9.7817 9.3335 10.334C9.3335 10.8863 9.78121 11.334 10.3335 11.334Z" stroke="#014DAF"/>
<path d="M6.66683 5.66602L11.3335 5.66602" stroke="#014DAF" stroke-linecap="round"/>
<path d="M9.33317 10.334L4.6665 10.334" stroke="#014DAF" stroke-linecap="round"/>
</svg>
