<svg width="16" height="16" viewBox="0 0 16 16" fill="none" xmlns="http://www.w3.org/2000/svg">
<g clip-path="url(#clip0_932_18782)">
<path d="M5.99938 14.6667L5.83229 12.3274C5.74246 11.0697 6.73853 10 7.99938 10C9.26024 10 10.2563 11.0697 10.1665 12.3274L9.99938 14.6667" stroke="#014DAF"/>
<path d="M1.56776 8.80962C1.33241 7.27815 1.21474 6.51241 1.50427 5.83357C1.79381 5.15473 2.43618 4.69027 3.72092 3.76136L4.68082 3.06732C6.27902 1.91176 7.07812 1.33398 8.00016 1.33398C8.9222 1.33398 9.7213 1.91176 11.3195 3.06732L12.2794 3.76136C13.5641 4.69027 14.2065 5.15473 14.4961 5.83357C14.7856 6.51241 14.6679 7.27814 14.4326 8.80962L14.2319 10.1156C13.8982 12.2866 13.7314 13.3721 12.9528 14.0197C12.1742 14.6673 11.0359 14.6673 8.75937 14.6673H7.24095C4.96438 14.6673 3.8261 14.6673 3.0475 14.0197C2.26889 13.3721 2.10208 12.2866 1.76845 10.1156L1.56776 8.80962Z" stroke="#014DAF" stroke-linejoin="round"/>
</g>
<defs>
<clipPath id="clip0_932_18782">
<rect width="16" height="16" fill="white"/>
</clipPath>
</defs>
</svg>
