<svg width="16" height="16" viewBox="0 0 16 16" fill="none" xmlns="http://www.w3.org/2000/svg">
<g clip-path="url(#clip0_932_18793)">
<path d="M8.00016 9.36505C6.52863 9.22756 5.02055 9.54644 3.71855 10.3217C2.77537 10.8833 0.302406 12.0301 1.8086 13.465C2.54437 14.166 3.36382 14.6673 4.39408 14.6673H8.66683" stroke="#014DAF" stroke-linecap="round" stroke-linejoin="round"/>
<path d="M10.3335 4.33398C10.3335 5.99084 8.99035 7.33398 7.3335 7.33398C5.67664 7.33398 4.3335 5.99084 4.3335 4.33398C4.3335 2.67713 5.67664 1.33398 7.3335 1.33398C8.99035 1.33398 10.3335 2.67713 10.3335 4.33398Z" stroke="#014DAF"/>
<path d="M11.9997 9.33398C11.1554 9.33398 10.6079 9.87238 9.9605 10.0686C9.69725 10.1484 9.56563 10.1883 9.51236 10.2446C9.45909 10.3008 9.44349 10.383 9.4123 10.5474C9.07846 12.3063 9.80813 13.9324 11.5483 14.5653C11.7353 14.6333 11.8288 14.6673 12.0006 14.6673C12.1724 14.6673 12.2659 14.6333 12.4528 14.5653C14.1929 13.9324 14.9219 12.3062 14.5879 10.5474C14.5567 10.383 14.5411 10.3008 14.4878 10.2445C14.4346 10.1883 14.303 10.1484 14.0397 10.0686C13.392 9.87242 12.844 9.33398 11.9997 9.33398Z" stroke="#014DAF" stroke-linecap="round" stroke-linejoin="round"/>
</g>
<defs>
<clipPath id="clip0_932_18793">
<rect width="16" height="16" fill="white"/>
</clipPath>
</defs>
</svg>
