<svg width="16" height="16" viewBox="0 0 16 16" fill="none" xmlns="http://www.w3.org/2000/svg">
<path d="M2.6665 10L2.6665 12.6667" stroke="#D0D5DD" stroke-linecap="round" stroke-linejoin="round"/>
<path d="M8 6L8 12.6667" stroke="#D0D5DD" stroke-linecap="round" stroke-linejoin="round"/>
<path d="M14.6665 14.666L1.33317 14.666" stroke="#D0D5DD" stroke-linecap="round" stroke-linejoin="round"/>
<path d="M13.333 8.66602L13.333 12.666" stroke="#D0D5DD" stroke-linecap="round" stroke-linejoin="round"/>
<path d="M3.73307 5.86727C3.48981 5.54344 3.10254 5.33398 2.66634 5.33398C1.92996 5.33398 1.33301 5.93094 1.33301 6.66732C1.33301 7.4037 1.92996 8.00065 2.66634 8.00065C3.40272 8.00065 3.99967 7.4037 3.99967 6.66732C3.99967 6.36713 3.90048 6.09012 3.73307 5.86727ZM3.73307 5.86727L6.93295 3.46736M6.93295 3.46736C7.1762 3.79119 7.56348 4.00065 7.99967 4.00065C8.52167 4.00065 8.9736 3.70069 9.19251 3.26373M6.93295 3.46736C6.76554 3.24451 6.66634 2.9675 6.66634 2.66732C6.66634 1.93094 7.2633 1.33398 7.99967 1.33398C8.73605 1.33398 9.33301 1.93094 9.33301 2.66732C9.33301 2.8817 9.28241 3.08427 9.19251 3.26373M9.19251 3.26373L12.1402 4.73757M12.1402 4.73757C12.0503 4.91703 11.9997 5.1196 11.9997 5.33398C11.9997 6.07036 12.5966 6.66732 13.333 6.66732C14.0694 6.66732 14.6663 6.07036 14.6663 5.33398C14.6663 4.5976 14.0694 4.00065 13.333 4.00065C12.811 4.00065 12.3591 4.30061 12.1402 4.73757Z" stroke="#D0D5DD"/>
</svg>
