<svg width="16" height="16" viewBox="0 0 16 16" fill="none" xmlns="http://www.w3.org/2000/svg">
<g clip-path="url(#clip0_932_18821)">
<path d="M2.97572 3C2.76349 3.08536 2.57566 3.19257 2.40513 3.32725C2.27135 3.4329 2.14762 3.54935 2.03536 3.67527C1.3335 4.46252 1.3335 5.64168 1.3335 8C1.3335 10.3583 1.3335 11.5375 2.03536 12.3247C2.14762 12.4506 2.27135 12.5671 2.40513 12.6728C3.24159 13.3333 4.49444 13.3333 7.00016 13.3333H9.00016C10.995 13.3333 12.1714 13.3333 13.0002 13" stroke="#014DAF" stroke-linecap="round" stroke-linejoin="round"/>
<path d="M1.3335 1.33398L14.6668 14.6673" stroke="#014DAF" stroke-linecap="round"/>
<path d="M1.6665 6H5.99984" stroke="#014DAF" stroke-linecap="round" stroke-linejoin="round"/>
<path d="M13.5952 3.3266L13.2853 3.71899L13.2853 3.71899L13.5952 3.3266ZM13.965 3.67462L13.5918 4.00735L13.5918 4.00735L13.965 3.67462ZM5.32266 2.17665C5.04658 2.18264 4.82763 2.4113 4.83361 2.68738C4.8396 2.96345 5.06826 3.1824 5.34434 3.17642L5.32266 2.17665ZM13.9868 11.2068C13.9173 11.474 14.0776 11.747 14.3448 11.8166C14.6121 11.8861 14.8851 11.7258 14.9546 11.4586L13.9868 11.2068ZM9.00016 5.49935C8.72402 5.49935 8.50016 5.72321 8.50016 5.99935C8.50016 6.27549 8.72402 6.49935 9.00016 6.49935L9.00016 5.49935ZM14.3335 6.49935C14.6096 6.49935 14.8335 6.27549 14.8335 5.99935C14.8335 5.72321 14.6096 5.49935 14.3335 5.49935L14.3335 6.49935ZM7.00016 2.66602V3.16602H9.00016V2.66602V2.16602H7.00016V2.66602ZM9.00016 2.66602V3.16602C10.2648 3.16602 11.1711 3.16676 11.8675 3.24543C12.5547 3.32305 12.9711 3.47085 13.2853 3.71899L13.5952 3.3266L13.9051 2.93421C13.3828 2.52176 12.7546 2.33927 11.9798 2.25175C11.2142 2.16527 10.2413 2.16602 9.00016 2.16602V2.66602ZM14.6668 7.99935H15.1668C15.1668 6.8334 15.1678 5.91152 15.0751 5.18458C14.9806 4.44381 14.7823 3.84002 14.3382 3.34188L13.965 3.67462L13.5918 4.00735C13.8495 4.29646 14.0021 4.67587 14.0831 5.31108C14.1659 5.96011 14.1668 6.80697 14.1668 7.99935H14.6668ZM13.5952 3.3266L13.2853 3.71899C13.3965 3.80683 13.499 3.90335 13.5918 4.00735L13.965 3.67462L14.3382 3.34188C14.2064 3.19405 14.0614 3.05768 13.9051 2.93421L13.5952 3.3266ZM7.00016 2.66602V2.16602C6.37134 2.16602 5.81432 2.16599 5.32266 2.17665L5.3335 2.67654L5.34434 3.17642C5.82293 3.16604 6.36815 3.16602 7.00016 3.16602V2.66602ZM14.6668 7.99935H14.1668C14.1668 9.57179 14.1628 10.5304 13.9868 11.2068L14.4707 11.3327L14.9546 11.4586C15.1709 10.6274 15.1668 9.51041 15.1668 7.99935H14.6668ZM9.00016 5.99935L9.00016 6.49935L14.3335 6.49935L14.3335 5.99935L14.3335 5.49935L9.00016 5.49935L9.00016 5.99935Z" fill="#014DAF"/>
</g>
<defs>
<clipPath id="clip0_932_18821">
<rect width="16" height="16" fill="white"/>
</clipPath>
</defs>
</svg>
